<svg width="713" height="444" viewBox="0 0 713 444" fill="none" xmlns="http://www.w3.org/2000/svg">
<g clip-path="url(#clip0_26_278)">
<path d="M9.61982e-05 221.7C9.61982e-05 149.9 9.61982e-05 78.0734 9.61982e-05 6.22003C0.0500962 -0.899972 -0.799903 2.75522e-05 6.0501 2.75522e-05C75.3834 2.75522e-05 144.717 2.75522e-05 214.05 2.75522e-05C237.51 2.75522e-05 260.54 3.21003 282.46 12C313.88 24.63 335.46 46.72 344.59 79.61C351.92 105.91 351.59 132.31 341.9 158.11C335 176.48 322.09 189.84 305.44 199.78C302.87 201.32 300.21 202.69 297.61 204.18C297.066 204.55 296.551 204.961 296.07 205.41C296.61 205.71 297.14 206.03 297.69 206.3C303.51 209.17 309.53 211.67 315.1 214.94C339.66 229.36 354.18 251.17 360.16 278.62C366.16 306.24 364.94 333.62 354.16 359.99C340.39 393.54 317.25 418.18 283.03 431.56C271.97 435.88 260.41 438.19 248.72 440C227.57 443.28 206.27 443.61 184.93 443.59C125.443 443.51 65.9501 443.51 6.4501 443.59C-0.899904 443.59 0.0800962 444.17 0.0800962 437.15C0.0267629 365.35 9.61982e-05 293.533 9.61982e-05 221.7ZM102.27 307V360.49C102.27 361.66 102.27 362.83 102.27 363.99C102.21 365.71 103.09 366.38 104.7 366.36C105.53 366.36 106.37 366.36 107.2 366.36C137.027 366.36 166.857 366.36 196.69 366.36C207.53 366.36 218.31 365.69 228.87 362.98C249.87 357.59 263.01 344.36 267.87 323.27C270.238 313.358 270.706 303.087 269.25 293C268.283 285.384 265.562 278.096 261.3 271.71C254.02 261.15 243.48 255.49 231.45 252.2C219.63 248.97 207.45 248.37 195.31 248.32C166.15 248.19 136.99 248.32 107.82 248.32H104.32C102.85 248.32 102.25 249.1 102.32 250.52C102.32 251.69 102.32 252.85 102.32 254.02L102.27 307ZM154.21 175V175.44C173.02 174.99 191.84 174.83 210.63 173.96C221.48 173.369 232.036 170.223 241.44 164.78C245.476 162.587 249.036 159.614 251.914 156.035C254.793 152.456 256.933 148.342 258.21 143.93C261.339 133.691 261.861 122.832 259.73 112.34C256.58 96.4 247.06 86.34 231.35 82.27C219.424 79.1397 207.16 77.4774 194.83 77.32C165.18 77 135.52 77.15 105.83 77.14C102.33 77.14 102.25 77.23 102.25 80.74C102.25 110.9 102.25 141.057 102.25 171.21C102.25 174.92 102.34 174.98 106.19 174.99C122.21 174.997 138.217 175 154.21 175Z" fill="#4B3BA2"/>
<path d="M596.69 294.22H486.69C480.91 294.22 481.12 294.22 481.69 300.09C482.352 308.721 484.03 317.243 486.69 325.48C495.25 350.54 513.2 365.1 538.55 370.94C551.269 373.833 564.445 374.098 577.27 371.72C596.6 368.26 611.35 358 621 340.9C622.73 337.9 624.62 336.9 628 336.9C653 337.04 678 336.98 703 336.98C703.67 336.98 704.34 336.98 705 336.98C708.28 337.12 708.39 337.23 707.79 340.49C705.584 352.12 701.039 363.18 694.43 373C671.37 407.76 639.43 429.29 598.43 437.08C578.947 440.846 559.023 441.792 539.27 439.89C502.27 436.22 469.52 422.17 441.52 397.62C427.09 384.98 417.13 369.12 410.24 351.32C404.13 335.56 400.78 319.18 399.09 302.38C397.498 286.627 397.233 270.768 398.3 254.97C400.05 228.86 405.21 203.52 417.69 180.23C437.58 143.08 468.53 119.84 509.01 109.07C526.67 104.37 544.71 103.07 562.96 103.73C580.598 104.291 598.074 107.29 614.89 112.64C645.28 122.42 668.79 141.01 686.14 167.64C698.031 185.973 705.955 206.592 709.4 228.17C712.79 248.48 712.71 268.96 712.77 289.44C712.77 294.21 712.65 294.24 707.71 294.24L596.69 294.22ZM554.2 239.32H619.69C621.03 239.32 622.36 239.25 623.69 239.32C625.69 239.42 626.41 238.43 626.13 236.59C625.5 232.48 625.07 228.32 624.13 224.27C618.36 198.72 602.56 182.47 577.61 175.13C566.3 171.8 554.71 171.41 542.98 172.88C530.98 174.38 519.92 178.1 510.53 185.8C494.32 199.11 487.08 217.22 483.8 237.3C483.856 237.708 484.015 238.094 484.262 238.423C484.508 238.752 484.835 239.012 485.21 239.18C486.533 239.384 487.876 239.431 489.21 239.32H554.2Z" fill="#4B3BA2"/>
<path d="M554.24 63.0002H471.78C470.78 63.0002 469.78 63.0002 468.78 63.0002C465.23 62.9002 465.14 62.9002 465.13 59.4102C465.08 48.7502 465.13 38.0902 465.13 27.4102C465.13 25.4102 465.25 23.4102 465.13 21.4102C464.94 18.9302 466.13 18.1202 468.38 18.3402C469.21 18.4202 470.05 18.3402 470.88 18.3402H637.77C643.87 18.3402 643.82 17.6102 643.77 24.2202C643.77 35.2068 643.77 46.2068 643.77 57.2202C643.77 64.0902 643.5 62.9802 638.16 62.9802C610.207 62.9935 582.233 63.0002 554.24 63.0002Z" fill="#4B3BA2"/>
</g>
<defs>
<clipPath id="clip0_26_278">
<rect width="712.72" height="443.67" fill="white"/>
</clipPath>
</defs>
</svg>
