<svg width="800" height="800" viewBox="0 0 800 800" fill="none" xmlns="http://www.w3.org/2000/svg">
<path fill-rule="evenodd" clip-rule="evenodd" d="M391.67 213.545C342.327 213.545 337.407 218.75 311.87 218.75C290.59 218.75 226.748 166.667 194.828 166.667C162.908 166.667 125.668 185.417 125.668 239.583V302.083C125.732 318.49 131.694 368.78 155.025 355.34C127.441 387.94 124.654 425.953 125.033 462.753C117.604 464.9 110.024 467.32 102.668 469.833C79.8712 477.63 55.6949 487.57 44.7732 494.623C33.1746 502.113 29.8445 517.59 37.3352 529.186C44.8259 540.786 60.3009 544.117 71.8992 536.627C77.1066 533.263 95.9409 524.976 118.844 517.146C121.375 516.28 123.91 515.436 126.433 514.62C127.975 529.08 131.803 542.28 137.493 554.306L136.707 554.72C123.049 561.936 110.377 570.223 102.296 575.506C100.898 576.42 99.6372 577.243 98.5329 577.956C86.9342 585.446 83.6042 600.923 91.0949 612.52C98.5856 624.12 114.061 627.45 125.659 619.96C127.03 619.073 128.491 618.12 130.032 617.113C138.21 611.776 148.666 604.95 160.066 598.926C162.739 597.513 165.312 596.233 167.772 595.08C225.449 649.16 328.997 666.666 391.67 666.666C454.34 666.666 557.89 649.16 615.567 595.08C618.027 596.233 620.597 597.513 623.27 598.926C634.67 604.95 645.127 611.776 653.303 617.113C654.847 618.12 656.307 619.073 657.677 619.96C669.277 627.45 684.75 624.12 692.243 612.52C699.733 600.923 696.403 585.446 684.803 577.956C683.7 577.243 682.44 576.42 681.04 575.506C672.96 570.223 660.287 561.936 646.63 554.72L645.847 554.306C651.537 542.276 655.363 529.08 656.907 514.617C659.433 515.433 661.973 516.276 664.507 517.146C687.41 524.976 706.247 533.263 711.453 536.627C723.05 544.117 738.527 540.786 746.017 529.186C753.507 517.59 750.177 502.113 738.58 494.623C727.657 487.57 703.48 477.63 680.683 469.833C673.323 467.316 665.74 464.9 658.307 462.75C658.683 425.95 655.897 387.94 628.313 355.34C651.647 368.78 657.607 318.49 657.673 302.083V239.587C657.673 185.42 620.43 166.67 588.51 166.67C556.59 166.67 492.75 218.75 471.47 218.75C445.933 218.75 441.017 213.545 391.67 213.545ZM369.15 520.013C375.903 517.713 383.873 516.667 391.67 516.667C399.467 516.667 407.437 517.713 414.19 520.013C417.503 521.14 421.557 522.92 425.123 525.793C428.707 528.676 433.337 534.02 433.337 541.667C433.337 549.313 428.707 554.656 425.123 557.54C421.557 560.413 417.503 562.193 414.19 563.32C407.437 565.62 399.467 566.667 391.67 566.667C383.873 566.667 375.903 565.62 369.15 563.32C365.837 562.193 361.783 560.413 358.213 557.54C354.63 554.656 350.003 549.313 350.003 541.667C350.003 534.02 354.63 528.676 358.213 525.793C361.783 522.92 365.837 521.14 369.15 520.013ZM464.003 416.683C468.553 409.07 477.533 400 491.003 400C504.473 400 513.453 409.07 518 416.683C522.743 424.623 525.003 434.246 525.003 443.75C525.003 453.253 522.743 462.876 518 470.816C513.453 478.43 504.473 487.5 491.003 487.5C477.533 487.5 468.553 478.43 464.003 470.816C459.26 462.876 457.003 453.253 457.003 443.75C457.003 434.246 459.26 424.623 464.003 416.683ZM265.339 416.683C269.886 409.07 278.866 400 292.337 400C305.807 400 314.787 409.07 319.335 416.683C324.078 424.623 326.337 434.246 326.337 443.75C326.337 453.253 324.078 462.876 319.335 470.816C314.787 478.43 305.807 487.5 292.337 487.5C278.866 487.5 269.886 478.43 265.339 470.816C260.595 462.876 258.336 453.253 258.336 443.75C258.336 434.246 260.595 424.623 265.339 416.683Z" fill="#6A6A70"/>
</svg>
