<svg width="18" height="20" viewBox="0 0 18 20" fill="none" xmlns="http://www.w3.org/2000/svg">
<path d="M15.7139 17.8574L8.57129 20L1.42871 17.8574L0 0H17.1426L15.7139 17.8574ZM3.22168 3.60059L3.93555 10.3857H11.0781L10.7207 13.2432L8.57812 13.957L6.43555 13.2432L6.07812 11.457H3.93555L4.29297 15.0283L8.57812 16.457L12.8643 15.0283L13.5781 8.24316H5.72168L5.36426 5.74316H13.9355L14.293 3.60059H3.22168Z" fill="#4B3BA2"/>
<path d="M15.7139 1.42871L14.2852 17.1426L8.57129 18.9287V16.4287L12.8574 15L13.5713 8.21484H8.57129V5.71484H13.9287L14.2852 3.57129H8.57129V1.42871H15.7139ZM11.0713 10.3574L10.7139 13.2148L8.57129 13.9287V10.3574H11.0713Z" fill="#6E68C2"/>
</svg>
