<svg width="375" height="276" viewBox="0 0 375 276" fill="none" xmlns="http://www.w3.org/2000/svg">
<g clip-path="url(#clip0_26_275)">
<path d="M186.82 275C136.153 275 85.5067 275 34.88 275C20.99 275 10.43 269.23 3.78 257C2.23207 253.882 1.15373 250.553 0.58 247.12C0.122824 244.143 -0.0412954 241.129 0.09 238.12C0.03 170.84 0 103.547 0 36.24C0 25.91 2.45 16.88 10 9.5C16.25 3.37 23.84 0.5 32.47 0.07C33.8 0 35.14 0.07 36.47 0.07C136.763 0.0233333 237.057 0 337.35 0C345.35 0 352.93 1.08 359.68 5.77C363.583 8.35507 366.876 11.7602 369.328 15.748C371.781 19.7358 373.334 24.2104 373.88 28.86C374.215 31.6705 374.365 34.4999 374.33 37.33C374.33 103.33 374.31 169.303 374.27 235.25C374.27 238.58 374.27 241.93 373.96 245.25C373.193 253.302 369.485 260.788 363.544 266.277C357.603 271.766 349.847 274.872 341.76 275C333.6 275.18 325.43 275.05 317.27 275.05H186.82V275ZM187 16.36H118C90.8467 16.36 63.6933 16.36 36.54 16.36C32.48 16.36 28.54 16.76 24.96 18.8C18.73 22.32 18.52 24.36 23.96 28.8L72.37 69.08L133.79 120.18C150.31 133.92 166.833 147.643 183.36 161.35C187.13 164.48 187.17 164.43 190.89 161.35C199.99 153.81 209.09 146.27 218.19 138.73C250.063 112.203 281.92 85.6733 313.76 59.14C326.173 48.8133 338.58 38.48 350.98 28.14C355.38 24.47 355.25 22.72 350.32 19.52C349.257 18.719 348.053 18.1253 346.77 17.77C343.561 17.0225 340.291 16.5706 337 16.42C287 16.34 237 16.32 187 16.36ZM186.87 258.53C237.037 258.53 287.203 258.53 337.37 258.53C340.185 258.559 342.992 258.223 345.72 257.53C349.47 256.53 349.67 255.16 346.72 252.66C334.953 242.84 323.167 233.047 311.36 223.28C284.513 201.093 257.66 178.927 230.8 156.78C226.8 153.47 226.27 153.46 222.37 156.78C213.45 164.3 204.54 171.78 195.55 179.24C188.76 184.84 185.55 184.79 178.88 179.24C169.913 171.78 160.953 164.32 152 156.86C147.88 153.42 147.48 153.44 143.15 157.02C109.757 184.593 76.3733 212.163 43 239.73C37.74 244.08 32.46 248.42 27.3 252.89C24.81 255.05 25.06 256.49 28.12 257.4C30.5036 258.104 32.9747 258.467 35.46 258.48C85.9267 258.54 136.407 258.557 186.9 258.53H186.87ZM358.12 142.72C358.12 112.913 358.12 83.1033 358.12 53.29C358.17 51.9561 358.14 50.6203 358.03 49.29C357.63 46.03 356.5 45.53 353.92 47.41C352.71 48.3 351.57 49.27 350.42 50.23L259.83 125.62C254.2 130.3 248.55 135 243 139.71C240.25 142.05 240.26 142.83 242.91 145.2C244.91 146.98 247.03 148.57 249.09 150.27C283.09 178.377 317.09 206.473 351.09 234.56C352.75 235.93 354.4 239.03 356.68 237.56C358 236.68 358.09 233.4 358.09 231.19C358.15 201.68 358.12 172.2 358.12 142.72ZM16.22 142.22C16.22 163.867 16.22 185.513 16.22 207.16C16.22 215.99 16.22 224.81 16.33 233.63C16.5225 235.033 16.8887 236.407 17.42 237.72C18.86 237.13 20.54 236.82 21.72 235.9C26.05 232.52 30.21 228.9 34.44 225.43L127.54 148.43C128.83 147.36 130.22 146.43 131.42 145.29C133.86 143 133.86 142.29 131.65 139.98C131.061 139.393 130.44 138.839 129.79 138.32C94.1033 108.62 58.4067 78.9333 22.7 49.26C21.24 48.05 19.05 46.26 17.75 46.62C15.19 47.35 16.27 50.29 16.26 52.3C16.2133 82.28 16.2 112.253 16.22 142.22Z" fill="#4B3BA2"/>
</g>
<defs>
<clipPath id="clip0_26_275">
<rect width="375" height="276" fill="white"/>
</clipPath>
</defs>
</svg>
