<svg width="20" height="20" viewBox="0 0 20 20" fill="none" xmlns="http://www.w3.org/2000/svg">
<g clip-path="url(#clip0_212_61)">
<path fill-rule="evenodd" clip-rule="evenodd" d="M10 10.0001C10 8.15916 11.4924 6.66675 13.3333 6.66675C15.1742 6.66675 16.6667 8.15916 16.6667 10.0001C16.6667 11.841 15.1742 13.3334 13.3333 13.3334C11.4924 13.3334 10 11.841 10 10.0001Z" fill="#63D2FF"/>
<path fill-rule="evenodd" clip-rule="evenodd" d="M3.33325 16.6666C3.33325 14.8257 4.82564 13.3333 6.66659 13.3333H9.99992V16.6666C9.99992 18.5075 8.5075 19.9999 6.66659 19.9999C4.82564 19.9999 3.33325 18.5075 3.33325 16.6666Z" fill="#FFA6FA"/>
<path fill-rule="evenodd" clip-rule="evenodd" d="M10 0V6.66667H13.3333C15.1742 6.66667 16.6667 5.17425 16.6667 3.33333C16.6667 1.49238 15.1742 0 13.3333 0H10Z" fill="#6E68C2"/>
<path fill-rule="evenodd" clip-rule="evenodd" d="M3.33325 3.33333C3.33325 5.17425 4.82564 6.66667 6.66659 6.66667H9.99992V0H6.66659C4.82564 0 3.33325 1.49238 3.33325 3.33333Z" fill="#4B3BA2"/>
<path fill-rule="evenodd" clip-rule="evenodd" d="M3.33325 10.0001C3.33325 11.841 4.82564 13.3334 6.66659 13.3334H9.99992V6.66675H6.66659C4.82564 6.66675 3.33325 8.15916 3.33325 10.0001Z" fill="#A259FF"/>
</g>
<defs>
<clipPath id="clip0_212_61">
<rect width="20" height="20" fill="white"/>
</clipPath>
</defs>
</svg>
