<svg width="562" height="562" viewBox="0 0 562 562" fill="none" xmlns="http://www.w3.org/2000/svg">
<g clip-path="url(#clip0_26_283)">
<path d="M212.11 524.42C212.11 531.09 211.92 537.76 212.11 544.42C212.6 558.08 203.6 563.75 190.58 560.08C183.11 557.98 175.93 554.7 168.85 551.44C160.4 547.54 152.1 543.3 143.92 538.85C129.18 530.793 115.384 521.116 102.79 510C93.55 501.88 84.61 493.34 76.22 484.36C69.22 476.86 63.13 468.49 56.72 460.44C47.99 449.44 40.89 437.44 34.32 425.08C29.87 416.73 26.16 407.98 22.32 399.3C16.7 386.47 12.68 373.08 9.13996 359.55C7.96996 355.06 7.08996 350.48 6.26996 345.9C5.07996 339 3.81996 332.15 2.99996 325.24C2.12996 318.16 1.38996 311.04 1.17996 303.92C0.869956 293.6 0.729956 283.25 1.17996 272.92C1.73996 260.32 2.48996 247.7 5.47996 235.35C7.70996 226.15 9.38996 216.82 11.84 207.69C15.4918 194.559 20.1145 181.716 25.67 169.27C31.7017 155.231 38.9668 141.755 47.38 129C54.4492 118.53 62.056 108.433 70.17 98.7501C76.7457 91.0011 83.757 83.6326 91.17 76.6801C103.06 65.2701 115.75 54.7801 129.88 46.2001C139.11 40.5901 148.3 34.8601 157.88 29.8601C173.173 21.7425 189.372 15.4622 206.14 11.1501C217.4 8.31014 228.7 5.39014 240.14 3.55014C250.14 1.96014 260.3 1.55014 270.41 1.13014C278.41 0.760138 286.41 0.790138 294.41 1.13014C306.86 1.66014 319.3 2.47014 331.49 5.41014C335.03 6.27014 338.7 6.63014 342.26 7.41014C357.003 10.8279 371.441 15.4467 385.43 21.2201C400.091 27.1398 414.176 34.3936 427.51 42.8901C440.11 50.9701 452.39 59.5101 463.31 69.8301C469.23 75.4301 475.22 80.9701 481.05 86.6601C491.06 96.6595 500.078 107.604 507.98 119.34C515.195 129.723 521.871 140.47 527.98 151.54C532.767 160.47 536.927 169.723 540.43 179.23C544.968 190.837 548.883 202.677 552.16 214.7C555.16 226.4 557.05 238.44 558.97 250.4C562.05 269.56 561.46 288.92 560.8 308.19C560.45 318.43 558.43 328.61 557.03 338.8C556.43 343.24 555.68 347.68 554.68 352.05C551.257 367.134 546.656 381.926 540.92 396.29C534.027 413.779 525.422 430.544 515.23 446.34C507.96 457.47 500.42 468.43 491.28 478.15C483.98 485.9 476.87 493.87 469.1 501.15C461.786 507.898 454.108 514.241 446.1 520.15C438.26 526.02 430.1 531.56 421.76 536.62C405.721 546.472 388.549 554.349 370.62 560.08C367.42 561.08 363.7 560.93 360.28 560.61C358.341 560.45 356.493 559.723 354.965 558.519C353.438 557.315 352.298 555.688 351.69 553.84C350.32 550.289 349.504 546.549 349.27 542.75C349.03 534.94 349.55 527.12 349.63 519.3C349.8 502.18 350.27 485.05 349.88 467.93C349.699 459.129 348.592 450.37 346.58 441.8C344.58 433.43 340.88 425.46 334.73 419C334.5 418.76 334.27 418.52 334.06 418.26C331.56 415.08 332.12 413.6 336.06 413.04C341.32 412.29 346.64 411.89 351.84 410.86C364.23 408.42 376.52 405.48 388.15 400.38C398.558 395.977 408.275 390.093 417 382.91C424.856 376.461 431.681 368.85 437.24 360.34C445.64 347.14 450.81 332.76 454.24 317.52C456.9 305.57 457.8 293.58 458.09 281.43C458.22 275.8 458.28 270.21 458.09 264.58C457.528 251.434 454.534 238.505 449.26 226.45C445.278 217.106 439.926 208.407 433.38 200.64C432.262 199.442 431.492 197.961 431.153 196.357C430.815 194.754 430.921 193.088 431.46 191.54C434.2 181.43 436.46 171.16 435.85 160.54C435.2 147.734 432.614 135.101 428.18 123.07C427.3 120.73 425.81 120.23 423.63 120.07C415.83 119.61 408.47 121.49 401.15 123.84C387.722 128.298 374.944 134.515 363.15 142.33C360.083 144.33 357.037 146.35 354.01 148.39C353.231 149.009 352.311 149.424 351.331 149.599C350.352 149.773 349.345 149.702 348.4 149.39C334.84 145.14 320.73 143.81 306.8 141.51C306.139 141.379 305.472 141.289 304.8 141.24C296.32 140.86 287.8 139.99 279.39 140.24C269.29 140.57 259.14 140.65 249.11 142.67C241.64 144.17 233.99 144.82 226.47 146.14C222.22 146.948 218.023 148.01 213.9 149.32C212.877 149.652 211.788 149.722 210.731 149.525C209.674 149.327 208.684 148.868 207.85 148.19C195.884 139.722 183.011 132.615 169.47 127C159.79 123.06 149.8 119.73 139.05 120.13C134.7 120.3 134.67 120.22 133.05 124.51C127.293 139.818 124.995 156.21 126.32 172.51C126.87 179.09 128.67 185.61 130.32 192.03C131.13 195.14 130.73 197.48 128.7 199.84C121.13 208.512 115.155 218.456 111.05 229.21C107.39 239.01 104.11 248.97 103.93 259.65C103.82 266.29 102.93 272.93 103.09 279.55C103.55 296.87 105.09 314.13 110.57 330.67C115.52 345.76 122.52 359.74 133.18 371.93C145.94 386.53 161.76 395.93 179.6 402.76C192.09 407.53 205.03 410.32 218.11 412.68C221.05 413.21 224.11 413.33 226.98 413.96C229.65 414.53 229.89 415.3 228.18 417.18C220.5 425.593 215.513 436.11 213.86 447.38C213.17 451.91 211.12 454.46 206.5 456.14C197.291 459.588 187.511 461.251 177.68 461.04C161.49 460.63 148.59 453.62 138.35 441.44C135.45 437.796 132.778 433.975 130.35 430C124.67 421.27 118 413.52 109.21 407.75C102.936 403.614 95.7626 401.042 88.29 400.25C85.4668 400.083 82.6374 400.449 79.95 401.33C75.57 402.57 74.69 405.93 77.88 409.25C80.4363 412.092 83.3158 414.626 86.46 416.8C96.57 423.3 103.76 432.39 109.52 442.6C113.26 449.23 116.04 456.4 119.28 463.31C125.348 476.609 136.021 487.265 149.33 493.31C159.19 497.94 169.67 499.85 180.24 500.49C187.6 500.94 195.13 499.49 202.52 498.49C212.72 497.05 211.86 495.95 211.92 505.96C211.92 512.13 211.92 518.29 211.92 524.45L212.11 524.42Z" fill="#4B3BA2"/>
</g>
<defs>
<clipPath id="clip0_26_283">
<rect width="562" height="562" fill="white"/>
</clipPath>
</defs>
</svg>
