<svg width="800" height="800" viewBox="0 0 800 800" fill="none" xmlns="http://www.w3.org/2000/svg">
<path fill-rule="evenodd" clip-rule="evenodd" d="M436.87 733.333H363.13C248.246 733.333 190.803 733.333 151.635 699.606C112.466 665.88 104.342 609.423 88.0949 496.506L78.8026 431.93C66.1546 344.026 59.8306 300.076 77.8459 262.498C95.8612 224.92 134.207 202.078 210.897 156.394L257.059 128.896C326.702 87.4095 361.524 66.6665 400 66.6665C438.477 66.6665 473.3 87.4095 542.94 128.896L589.104 156.394C665.794 202.078 704.14 224.92 722.154 262.498C740.17 300.076 733.847 344.026 721.197 431.93L711.907 496.506C695.657 609.423 687.534 665.88 648.367 699.606C609.197 733.333 551.754 733.333 436.87 733.333ZM279.919 518.44C288.141 507.346 303.799 505.02 314.891 513.243C339.17 531.236 368.474 541.66 400.004 541.66C431.534 541.66 460.837 531.236 485.117 513.243C496.21 505.02 511.867 507.346 520.087 518.44C528.31 529.53 525.984 545.19 514.89 553.41C482.477 577.436 442.837 591.66 400.004 591.66C357.17 591.66 317.53 577.436 285.117 553.41C274.024 545.19 271.698 529.53 279.919 518.44Z" fill="#6A6A70"/>
</svg>
