<svg width="18" height="20" viewBox="0 0 18 20" fill="none" xmlns="http://www.w3.org/2000/svg">
<path d="M15.7139 17.8574L8.57129 20L1.42871 17.8574L0 0H17.1426L15.7139 17.8574ZM3.21387 3.92871L3.57129 6.07129H9.28516L3.57129 7.85742L3.92871 10.3574H11.0713L10.7139 13.2139L8.57129 13.9287L6.42871 13.2139L6.07129 11.4287H3.92871L4.28516 15L8.57129 16.4287L12.8574 15L13.5713 8.21387H9.28516L13.9287 6.42871L14.2852 3.92871H3.21387Z" fill="#4B3BA2"/>
<path d="M15.7139 1.42871L14.2852 17.1426L8.57129 18.9287V16.4287L12.8574 15L13.5713 8.21387H9.28516L13.9287 6.42871L14.2852 3.92871H8.57129V1.42871H15.7139ZM11.0713 10.3574L10.7139 13.2139L8.57129 13.9287V10.3574H11.0713ZM9.28516 6.07129L8.57129 6.29395V6.07129H9.28516Z" fill="#6E68C2"/>
</svg>
