<svg width="20" height="20" viewBox="0 0 20 20" fill="none" xmlns="http://www.w3.org/2000/svg">
<path d="M12.7617 0C15.2953 0 16.5627 0.000100076 17.5303 0.493164C18.3812 0.926843 19.0732 1.61876 19.5068 2.46973C19.9999 3.43743 20 4.70473 20 7.23828V12.7617C20 15.2953 19.9999 16.5627 19.5068 17.5303C19.0732 18.3812 18.3812 19.0732 17.5303 19.5068C16.5627 19.9999 15.2953 20 12.7617 20H7.23828C4.70473 20 3.43743 19.9999 2.46973 19.5068C1.61876 19.0732 0.926843 18.3812 0.493164 17.5303C0.000100076 16.5627 0 15.2953 0 12.7617V7.23828C0 4.70473 0.000100076 3.43743 0.493164 2.46973C0.926839 1.61876 1.61876 0.926839 2.46973 0.493164C3.43743 0.000100076 4.70473 0 7.23828 0H12.7617ZM7.04883 5.68848C6.99584 5.68076 6.94737 5.72989 6.95508 5.78516C6.95441 5.97201 6.93646 6.15837 6.90137 6.3418C6.87459 6.44723 6.84812 6.54149 6.82129 6.62402L4.1377 14.5498C4.1108 14.6507 4.14193 14.7012 4.23145 14.7012H5.80078C5.87545 14.705 5.94428 14.6525 5.96191 14.5781L6.59277 12.5684H9.69238L10.376 14.6055C10.3906 14.6667 10.4496 14.7082 10.5107 14.7012H12.2549C12.3351 14.7012 12.3615 14.6559 12.335 14.5645L9.28906 5.75684C9.27991 5.71131 9.24468 5.68859 9.18262 5.68848H7.04883ZM13.3281 7.8623C13.2564 7.8623 13.2207 7.90383 13.2207 7.98633V14.5645C13.2208 14.6559 13.2606 14.7011 13.3408 14.7012H14.9775C15.0489 14.7013 15.0848 14.6561 15.085 14.5645V7.98633C15.0849 7.90383 15.049 7.8623 14.9775 7.8623H13.3281ZM8.13574 7.27051C8.45432 8.46986 8.84703 9.64484 9.19531 10.835H7.07617C7.41738 9.66899 7.79203 8.47193 8.13574 7.27051ZM14.1729 5C14.0359 4.99639 13.8993 5.02149 13.7715 5.07227C13.644 5.12298 13.5274 5.19881 13.4287 5.2959C13.3288 5.39427 13.2502 5.51391 13.1982 5.64551C13.1464 5.77691 13.1211 5.91787 13.126 6.05957C13.1203 6.20274 13.1423 6.34606 13.1904 6.48047C13.2388 6.61511 13.3132 6.73944 13.4082 6.84473C13.5032 6.94533 13.6182 7.02407 13.7451 7.07617C13.8723 7.12831 14.0096 7.1531 14.1465 7.14746C14.2883 7.15432 14.4298 7.13014 14.5625 7.07812C14.695 7.02606 14.8159 6.94686 14.917 6.84473C15.0139 6.74048 15.0901 6.61708 15.1396 6.48242C15.1891 6.34771 15.2118 6.20343 15.2061 6.05957C15.2115 5.92024 15.1896 5.78121 15.1426 5.65039C15.0953 5.51934 15.0233 5.3984 14.9307 5.2959C14.7474 5.09885 14.4947 5 14.1729 5Z" fill="#4B3BA2"/>
</svg>
