<svg width="20" height="20" viewBox="0 0 20 20" fill="none" xmlns="http://www.w3.org/2000/svg">
<g clip-path="url(#clip0_212_82)">
<path d="M10.0309 5.27539C14.1485 2.07879 12.0353 0 12.0353 0C12.3498 3.30461 8.63301 4.08489 7.6367 6.35575C6.95689 7.90531 8.10226 9.26206 10.0296 10.9721C9.8592 10.5934 9.59639 10.2254 9.33039 9.85281C8.42295 8.58206 7.4777 7.25825 10.0309 5.27539Z" fill="#FFA6FA"/>
<path d="M10.6885 11.6732C10.6885 11.6732 11.9272 10.6738 10.9462 9.56307C7.6207 5.79498 14.5833 4.08496 14.5833 4.08496C10.3323 6.13288 10.967 7.34844 12.0355 8.82519C13.1795 10.4087 10.6885 11.6732 10.6885 11.6732Z" fill="#FFA6FA"/>
<path d="M14.3357 14.6535C18.1515 12.7036 16.3873 10.8299 15.1558 11.0823C14.854 11.1441 14.7194 11.1976 14.7194 11.1976C14.7194 11.1976 14.8315 11.025 15.0455 10.9503C17.4817 10.1081 19.3552 13.4343 14.259 14.7518C14.259 14.7518 14.3181 14.6999 14.3357 14.6535Z" fill="#4B3BA2"/>
<path d="M6.39559 12.1855C4.00816 11.872 7.70465 11.0086 7.70465 11.0086C7.70465 11.0086 6.26915 10.9134 4.50366 11.7526C2.41607 12.7457 9.66753 13.1973 13.4212 12.2265C13.8115 11.9644 14.3508 11.7373 14.3508 11.7373C14.3508 11.7373 12.8148 12.0071 11.285 12.134C9.41321 12.2882 7.40365 12.3183 6.39559 12.1855Z" fill="#4B3BA2"/>
<path d="M7.30401 14.0473C5.97266 13.9119 6.84439 13.2773 6.84439 13.2773C3.39937 14.4017 8.76114 15.6768 13.5749 14.2925C13.0633 14.1152 12.7379 13.7907 12.7379 13.7907C10.3852 14.2362 9.02564 14.222 7.30401 14.0473Z" fill="#4B3BA2"/>
<path d="M7.88407 16.0619C6.55376 15.9115 7.33095 15.467 7.33095 15.467C4.20372 16.3263 9.23307 18.1015 13.2146 16.4235C12.5624 16.1741 12.0955 15.8862 12.0955 15.8862C10.3194 16.2167 9.4957 16.2427 7.88407 16.0619Z" fill="#4B3BA2"/>
<path d="M16.2117 17.0866C16.2117 17.0866 16.7868 17.5526 15.5783 17.9131C13.2801 18.5978 6.01308 18.8045 3.99434 17.9405C3.26865 17.63 4.62952 17.1992 5.05759 17.1088C5.50404 17.0136 5.75916 17.0313 5.75916 17.0313C4.95213 16.4723 0.542806 18.1291 3.51944 18.6036C11.6372 19.8981 18.3173 18.0206 16.2117 17.0866Z" fill="#4B3BA2"/>
<path d="M17.5 18.105C17.3668 19.8092 11.7423 20.1677 8.07965 19.9372C5.69023 19.7865 5.21135 19.4099 5.20435 19.4044C7.49121 19.7752 11.3468 19.8427 14.473 19.2641C17.244 18.751 17.5 18.105 17.5 18.105Z" fill="#4B3BA2"/>
</g>
<defs>
<clipPath id="clip0_212_82">
<rect width="20" height="20" fill="white"/>
</clipPath>
</defs>
</svg>
