<svg width="18" height="20" viewBox="0 0 18 20" fill="none" xmlns="http://www.w3.org/2000/svg">
<path d="M17.5586 0.713867C17.5565 0.736627 17.5538 0.759759 17.5518 0.783203C17.545 0.858274 17.539 0.933725 17.5322 1.00879C17.5272 1.06381 17.5215 1.11881 17.5166 1.17383C17.5031 1.32388 17.4902 1.47398 17.4766 1.62402C17.4619 1.78655 17.4472 1.94976 17.4326 2.1123C17.4071 2.39421 17.381 2.67612 17.3555 2.95801C17.3286 3.25583 17.3023 3.55373 17.2754 3.85156C17.2738 3.87023 17.2713 3.88897 17.2695 3.9082C17.261 4.00293 17.2527 4.09766 17.2441 4.19238C17.1834 4.8654 17.1224 5.53889 17.0615 6.21191C17.0032 6.8567 16.945 7.50168 16.8867 8.14648C16.8841 8.17586 16.8845 8.17604 16.8818 8.20605C16.8621 8.42338 16.8419 8.64107 16.8223 8.8584C16.7869 9.25031 16.7523 9.64228 16.7168 10.0342C16.7151 10.0534 16.7127 10.073 16.7109 10.0928C16.6625 10.6289 16.6138 11.165 16.5654 11.7012C16.5558 11.8066 16.5466 11.9122 16.5371 12.0176C16.5091 12.3274 16.4811 12.6374 16.4531 12.9473C16.3879 13.6681 16.3234 14.3895 16.2588 15.1104C16.2457 15.2564 16.2319 15.4028 16.2188 15.5488C16.217 15.5691 16.2158 15.5895 16.2139 15.6104C16.2065 15.6924 16.1988 15.7745 16.1914 15.8564C16.1699 16.0959 16.1484 16.3356 16.127 16.5752C16.1137 16.7238 16.1003 16.8728 16.0869 17.0215C16.0791 17.1072 16.0711 17.1935 16.0635 17.2793C16.0552 17.3726 16.0474 17.4662 16.0391 17.5596C16.0367 17.5868 16.0337 17.6145 16.0312 17.6426C16.029 17.6674 16.0267 17.6922 16.0244 17.7178C16.0215 17.7501 16.0215 17.7505 16.0186 17.7832C16.0108 17.8492 15.9983 17.9136 15.9844 17.9785C14.992 18.263 13.9993 18.5458 13.0059 18.8262C12.9824 18.8328 12.9588 18.8399 12.9346 18.8467C12.601 18.9409 12.2671 19.0348 11.9336 19.1289C11.8141 19.1626 11.6947 19.1967 11.5752 19.2305C11.5516 19.2371 11.5272 19.2432 11.5029 19.25C11.316 19.3027 11.1292 19.3554 10.9424 19.4082C10.8128 19.4447 10.6833 19.481 10.5537 19.5176C10.4931 19.5346 10.4317 19.5522 10.3711 19.5693C10.2931 19.5914 10.2148 19.6129 10.1367 19.6348C9.95549 19.6856 9.77418 19.7372 9.59375 19.791C9.50844 19.8165 9.4233 19.842 9.33789 19.8672C9.29729 19.8793 9.25622 19.8909 9.21582 19.9033C9.15979 19.9203 9.10398 19.9376 9.04785 19.9541C9.00015 19.9684 8.99986 19.9677 8.95117 19.9824C8.7878 20.012 8.64113 19.9767 8.48242 19.9316C8.45186 19.923 8.42114 19.9142 8.38965 19.9053C8.35679 19.8958 8.32388 19.8866 8.29004 19.877C8.25434 19.8669 8.21831 19.8568 8.18262 19.8467C8.10528 19.8248 8.02749 19.8024 7.9502 19.7803C7.8254 19.7447 7.70006 19.7091 7.5752 19.6738C7.41895 19.6295 7.26265 19.5854 7.10645 19.541C6.80268 19.4547 6.49826 19.3689 6.19434 19.2832C6.15931 19.2733 6.15878 19.2728 6.12305 19.2627C6.02863 19.2361 5.93425 19.2092 5.83984 19.1826C5.67306 19.1355 5.50563 19.0882 5.33887 19.041C4.88089 18.9117 4.42293 18.7823 3.96484 18.6533C3.92207 18.6413 3.87871 18.6302 3.83594 18.6182C3.5954 18.5505 3.59524 18.5502 3.35449 18.4824C2.95421 18.3699 2.55421 18.2565 2.1543 18.1426C2.11242 18.1307 2.07021 18.1193 2.02832 18.1074C1.97035 18.0909 1.91243 18.0741 1.85449 18.0576C1.82133 18.0481 1.78807 18.039 1.75391 18.0293C1.67614 18.0057 1.67614 18.0051 1.62305 17.9785C1.61125 17.9042 1.60303 17.8318 1.59668 17.7568C1.59447 17.7331 1.59212 17.709 1.58984 17.6846C1.5824 17.604 1.57546 17.5229 1.56836 17.4424C1.56308 17.3845 1.55708 17.3265 1.55176 17.2686C1.53695 17.1068 1.52323 16.944 1.50879 16.7822C1.49463 16.624 1.48021 16.4657 1.46582 16.3076C1.43595 15.9793 1.40548 15.6506 1.37598 15.3223C1.3464 14.9932 1.31693 14.6639 1.28711 14.335C1.28526 14.3144 1.28316 14.2936 1.28125 14.2725C1.27175 14.1676 1.26243 14.0629 1.25293 13.958C1.23328 13.7412 1.21397 13.5244 1.19434 13.3076C1.19236 13.2856 1.19053 13.2629 1.18848 13.2402C1.15732 12.8961 1.12578 12.5521 1.09473 12.208C1.09043 12.1604 1.08633 12.1121 1.08203 12.0645C1.07991 12.0409 1.07738 12.0173 1.0752 11.9932C0.956878 10.6823 0.837927 9.37129 0.71875 8.06055C0.68378 7.67589 0.649208 7.29092 0.614258 6.90625C0.611622 6.87725 0.60916 6.84823 0.606445 6.81836C0.561205 6.32047 0.515933 5.82212 0.470703 5.32422C0.444203 5.03253 0.417135 4.7409 0.390625 4.44922C0.334425 3.8309 0.278716 3.21208 0.222656 2.59375C0.196914 2.30987 0.170354 2.02607 0.144531 1.74219C0.127171 1.55127 0.110053 1.35988 0.0927734 1.16895C0.0828874 1.05967 0.0734425 0.950093 0.0634766 0.84082C0.0544043 0.741348 0.0451053 0.641474 0.0361328 0.541992C0.0313633 0.489247 0.0263133 0.436529 0.0214844 0.383789C0.0172544 0.336762 0.0170053 0.336064 0.0126953 0.288086C0.0102718 0.261352 0.00836117 0.234567 0.00585938 0.207031C0.00102938 0.138313 0 0.0688877 0 0H17.6064C17.5759 0.518914 17.5765 0.519338 17.5586 0.713867ZM6.38379 3.88281V13.0586C6.28905 13.0349 6.194 13.0113 6.09961 12.9863C6.07801 12.9805 6.0571 12.9744 6.03613 12.9688C5.99854 12.9584 5.99778 12.9583 5.96094 12.9482C5.92125 12.9374 5.92101 12.9374 5.88184 12.9268C5.82356 12.9108 5.76531 12.8948 5.70703 12.8789C5.61216 12.8529 5.51675 12.8267 5.42188 12.8008C5.13248 12.7217 4.84308 12.6426 4.55371 12.5635C4.40115 12.5217 4.24829 12.4802 4.0957 12.4385C4.03108 12.4209 3.96598 12.4034 3.90137 12.3857C3.80872 12.3603 3.71571 12.3349 3.62305 12.3096C3.59397 12.3017 3.56534 12.2938 3.53711 12.2861C3.49747 12.2752 3.49712 12.2754 3.45801 12.2646C3.42052 12.2544 3.42049 12.2541 3.38379 12.2441C3.27529 12.2144 3.27514 12.2142 3.00586 12.1543V14.2559C3.05886 14.2824 3.05921 14.2817 3.12012 14.2988C3.15898 14.3088 3.15916 14.3087 3.19727 14.3184C3.22676 14.3258 3.25554 14.3334 3.28418 14.3408C3.77714 14.4665 4.26914 14.5958 4.75781 14.7373C4.93759 14.7895 5.11799 14.8373 5.2998 14.8818C5.46295 14.9216 5.6244 14.9651 5.78516 15.0137C5.94806 15.063 6.11201 15.1061 6.27734 15.1465C6.42384 15.1822 6.56937 15.2195 6.71387 15.2627C6.89504 15.3176 7.07684 15.3672 7.26074 15.4121C7.43423 15.4543 7.60575 15.5011 7.77637 15.5537C7.90381 15.5946 8.00087 15.6113 8.13867 15.6113V3.88281H6.38379ZM9.52148 3.88281C9.52148 5.13753 9.51636 6.39197 9.53125 7.64648C9.53285 7.77849 9.53463 7.91096 9.53613 8.04297C9.53883 8.29488 9.54202 8.54692 9.54492 8.79883C9.54822 9.08615 9.55159 9.37381 9.55469 9.66113C9.56149 10.2792 9.5681 10.8975 9.5752 11.5156C9.6664 11.5156 9.74762 11.5061 9.83691 11.4902C9.87931 11.4824 9.92244 11.4754 9.96484 11.4678C9.98796 11.4637 10.0108 11.4591 10.0332 11.4551C10.4071 11.3878 10.781 11.322 11.1572 11.2686C11.2952 11.2495 11.4312 11.2315 11.5664 11.1973C11.7515 11.1564 11.7517 11.1569 11.9395 11.1309C12.1303 11.1043 12.324 11.0847 12.5107 11.0361C12.6073 11.0094 12.6074 11.0093 12.709 10.9941C12.7722 10.9856 12.8362 10.9774 12.8994 10.9688C12.9267 10.9652 12.9531 10.9606 12.9795 10.957C12.9576 11.2989 12.9463 11.6409 12.9395 11.9834C12.9385 12.0382 12.9376 12.0936 12.9365 12.1484C12.9338 12.2759 12.9303 12.4038 12.9277 12.5312C12.9267 12.5823 12.9268 12.5825 12.9258 12.6328C12.7173 12.689 12.5086 12.7445 12.2988 12.7959C11.9887 12.8718 11.6813 12.956 11.374 13.043C11.1692 13.101 10.9634 13.1576 10.7568 13.209C10.343 13.3111 9.93145 13.4199 9.52148 13.5371C9.51819 14.2291 9.52484 14.9198 9.54883 15.6113C9.63045 15.6162 9.69268 15.6086 9.77246 15.5879C10.0278 15.5084 10.2862 15.439 10.5459 15.375C10.8309 15.3051 11.1156 15.2344 11.3984 15.1562C11.6427 15.0888 11.8876 15.0236 12.1328 14.96L12.6074 14.8369C12.7236 14.8067 12.8401 14.7763 12.9561 14.7451C13.162 14.6892 13.3685 14.6371 13.5762 14.5879C13.812 14.5323 14.0473 14.4745 14.2822 14.415C14.3004 14.2267 14.3157 14.0383 14.3281 13.8496C14.3448 13.5943 14.3613 13.3393 14.3887 13.085C14.408 12.9058 14.4228 12.7267 14.4346 12.5469C14.4511 12.2902 14.4691 12.034 14.4971 11.7783C14.5372 11.4164 14.5645 11.0546 14.5879 10.6914C14.6095 10.3565 14.6345 10.023 14.6719 9.68945C14.7101 9.35017 14.7262 9.01116 14.7344 8.66992C14.582 8.66614 14.4348 8.67764 14.2832 8.69434C14.2366 8.69967 14.2362 8.69888 14.1904 8.7041C14.0873 8.7156 13.9841 8.72754 13.8809 8.73926C13.8074 8.7476 13.7337 8.7564 13.6602 8.76465C13.088 8.82881 12.5153 8.89413 11.9434 8.96094C11.708 8.9886 11.4795 9.01611 11.251 9.04297V5.98438H14.9736C15.0151 5.58313 15.0601 5.19189 15.0801 4.79102C15.083 4.727 15.0857 4.66263 15.0889 4.59863C15.0911 4.55478 15.0926 4.51065 15.0947 4.4668C15.0962 4.43523 15.0962 4.43507 15.0977 4.4043C15.1062 4.23034 15.1074 4.05732 15.1074 3.88281H9.52148Z" fill="#4B3BA2"/>
<path d="M15.9844 1.62207C15.9844 1.83204 15.983 2.03198 15.9629 2.23926C15.9606 2.26342 15.9584 2.28761 15.9561 2.3125C15.9514 2.36355 15.9473 2.41478 15.9424 2.46582C15.9298 2.59983 15.9175 2.73412 15.9053 2.86816C15.9029 2.89428 15.9 2.92036 15.8975 2.94727C15.8798 3.14097 15.8639 3.3353 15.8496 3.5293C15.8096 4.06776 15.7622 4.60565 15.7051 5.14258C15.6412 5.74382 15.5958 6.34729 15.5508 6.9502C15.5374 7.1255 15.5198 7.30006 15.499 7.47461C15.4784 7.65326 15.4659 7.83236 15.4531 8.01172C15.4242 8.41435 15.3873 8.81608 15.3477 9.21777C15.3014 9.68712 15.2566 10.1567 15.2207 10.627C15.2073 10.7999 15.1929 10.9727 15.1787 11.1455C15.1753 11.1864 15.1722 11.2277 15.1689 11.2686C15.1518 11.481 15.132 11.6927 15.1074 11.9043C15.0769 12.1695 15.056 12.436 15.0352 12.7021C15.0015 13.1307 14.9657 13.5588 14.9209 13.9863C14.8958 14.2293 14.8764 14.473 14.8604 14.7168C14.8496 14.8756 14.8348 15.0334 14.8164 15.1914C14.7802 15.5048 14.7576 15.8193 14.7334 16.1338C14.7265 16.2232 14.7189 16.3129 14.7119 16.4023C14.7076 16.4573 14.7035 16.5124 14.6992 16.5674C14.6881 16.7105 14.6744 16.8528 14.6553 16.9951C14.6298 17.0013 14.6292 17.0006 14.6035 17.0068C14.1977 17.1053 14.1974 17.1055 13.7959 17.2188C13.57 17.2873 13.341 17.3456 13.1123 17.4043C12.9242 17.4527 12.7367 17.503 12.5498 17.5557C12.3742 17.6049 12.1976 17.652 12.0215 17.6992C11.8065 17.757 11.5914 17.816 11.377 17.876C11.2282 17.9175 11.0788 17.9576 10.9297 17.998C10.7182 18.0556 10.5071 18.1143 10.2959 18.1729C10.2696 18.1801 10.2429 18.1868 10.2158 18.1943C10.1087 18.2241 10.0018 18.2545 9.89453 18.2842C9.74007 18.3271 9.58523 18.3695 9.43066 18.4121C9.36721 18.4296 9.30368 18.4471 9.24023 18.4648C9.2046 18.4746 9.16845 18.4844 9.13281 18.4941C9.10293 18.5025 9.07277 18.5109 9.04199 18.5195C8.96329 18.5368 8.96308 18.5371 8.83008 18.5371V1.62207H15.9844ZM9.52148 3.88281C9.52148 5.13753 9.51636 6.39197 9.53125 7.64648C9.53285 7.77849 9.53463 7.91096 9.53613 8.04297C9.53883 8.29488 9.54202 8.54692 9.54492 8.79883C9.54822 9.08615 9.55159 9.37381 9.55469 9.66113C9.56149 10.2792 9.5681 10.8975 9.5752 11.5156C9.6664 11.5156 9.74762 11.5061 9.83691 11.4902C9.87931 11.4824 9.92244 11.4754 9.96484 11.4678C9.98796 11.4637 10.0108 11.4591 10.0332 11.4551C10.4071 11.3878 10.781 11.322 11.1572 11.2686C11.2952 11.2495 11.4312 11.2315 11.5664 11.1973C11.7515 11.1564 11.7517 11.1569 11.9395 11.1309C12.1303 11.1043 12.324 11.0847 12.5107 11.0361C12.6073 11.0094 12.6074 11.0093 12.709 10.9941C12.7722 10.9856 12.8362 10.9774 12.8994 10.9688C12.9267 10.9652 12.9531 10.9606 12.9795 10.957C12.9576 11.2989 12.9463 11.6409 12.9395 11.9834C12.9385 12.0382 12.9376 12.0936 12.9365 12.1484C12.9338 12.2759 12.9303 12.4038 12.9277 12.5312C12.9267 12.5823 12.9268 12.5825 12.9258 12.6328C12.7173 12.689 12.5086 12.7445 12.2988 12.7959C11.9887 12.8718 11.6813 12.956 11.374 13.043C11.1692 13.101 10.9634 13.1576 10.7568 13.209C10.343 13.3111 9.93145 13.4199 9.52148 13.5371C9.51819 14.2291 9.52484 14.9198 9.54883 15.6113C9.63045 15.6162 9.69268 15.6086 9.77246 15.5879C10.0278 15.5084 10.2862 15.439 10.5459 15.375C10.8309 15.3051 11.1156 15.2344 11.3984 15.1562C11.6427 15.0888 11.8876 15.0236 12.1328 14.96L12.6074 14.8369C12.7236 14.8067 12.8401 14.7763 12.9561 14.7451C13.162 14.6892 13.3685 14.6371 13.5762 14.5879C13.812 14.5323 14.0473 14.4745 14.2822 14.415C14.3004 14.2267 14.3157 14.0383 14.3281 13.8496C14.3448 13.5943 14.3613 13.3393 14.3887 13.085C14.408 12.9058 14.4228 12.7267 14.4346 12.5469C14.4511 12.2902 14.4691 12.034 14.4971 11.7783C14.5372 11.4164 14.5645 11.0546 14.5879 10.6914C14.6095 10.3565 14.6345 10.023 14.6719 9.68945C14.7101 9.35017 14.7262 9.01116 14.7344 8.66992C14.582 8.66614 14.4348 8.67764 14.2832 8.69434C14.2366 8.69967 14.2362 8.69888 14.1904 8.7041C14.0873 8.7156 13.9841 8.72754 13.8809 8.73926C13.8074 8.7476 13.7337 8.7564 13.6602 8.76465C13.088 8.82881 12.5153 8.89413 11.9434 8.96094C11.708 8.9886 11.4795 9.01611 11.251 9.04297V5.98438H14.9736C15.0151 5.58313 15.0601 5.19189 15.0801 4.79102C15.083 4.727 15.0857 4.66263 15.0889 4.59863C15.0911 4.55478 15.0926 4.51065 15.0947 4.4668C15.0962 4.43523 15.0962 4.43507 15.0977 4.4043C15.1062 4.23034 15.1074 4.05732 15.1074 3.88281H9.52148Z" fill="#6E68C2"/>
</svg>
