<svg width="800" height="800" viewBox="0 0 800 800" fill="none" xmlns="http://www.w3.org/2000/svg">
<path d="M254.147 148.296C316.707 123.265 354.027 108.333 400 108.333C445.973 108.333 483.293 123.265 545.853 148.296L644.837 187.89C676.653 200.617 702.427 210.925 720.117 220.2C729.07 224.894 737.743 230.216 744.433 236.631C751.307 243.222 758.333 253.219 758.333 266.666C758.333 280.114 751.307 290.11 744.433 296.702C737.743 303.117 729.07 308.439 720.117 313.133C702.427 322.407 676.653 332.716 644.837 345.443L545.853 385.036C483.293 410.066 445.973 425 400 425C354.027 425 316.707 410.066 254.148 385.036L155.165 345.443C123.346 332.716 97.5734 322.407 79.8824 313.133C70.9287 308.439 62.2551 303.117 55.5671 296.702C48.6951 290.11 41.6667 280.114 41.6667 266.666C41.6667 253.219 48.6951 243.222 55.5671 236.631C62.2551 230.216 70.9287 224.894 79.8824 220.2C97.5737 210.925 123.346 200.617 155.165 187.889L254.147 148.296Z" fill="#6A6A70"/>
<path fill-rule="evenodd" clip-rule="evenodd" d="M83.3511 381.384L83.3044 381.34L83.4204 381.44C83.5674 381.57 83.8408 381.804 84.2408 382.137C85.0411 382.807 86.3474 383.87 88.1598 385.27C91.7848 388.074 97.4298 392.21 105.093 397.18C120.422 407.12 143.806 420.384 175.246 432.957L268.861 470.404C336.357 497.4 364.653 508.334 400 508.334C435.347 508.334 463.643 497.4 531.14 470.404L624.753 432.957C656.193 420.384 679.58 407.12 694.907 397.18C702.57 392.21 708.217 388.074 711.84 385.27C713.653 383.87 714.96 382.807 715.76 382.137C716.16 381.804 716.433 381.57 716.58 381.44L716.65 381.384C716.667 381.367 716.687 381.35 716.703 381.334C726.983 372.174 742.743 373.05 751.943 383.307C761.163 393.584 760.307 409.39 750.027 418.61L733.333 400C750.027 418.61 750.033 418.604 750.027 418.61L749.98 418.65L749.923 418.704L749.767 418.84L749.31 419.24C748.94 419.56 748.44 419.99 747.803 420.517C746.537 421.577 744.74 423.037 742.413 424.834C737.763 428.427 730.997 433.367 722.113 439.13C704.343 450.654 678.08 465.48 643.323 479.38L549.707 516.827C548.413 517.347 547.127 517.86 545.853 518.37C483.293 543.4 445.973 558.334 400 558.334C354.027 558.334 316.707 543.4 254.147 518.37C252.873 517.86 251.588 517.347 250.292 516.827L156.676 479.38C121.92 465.48 95.6571 450.654 77.8874 439.13C69.0018 433.367 62.2351 428.427 57.5858 424.834C55.2608 423.037 53.4641 421.577 52.1958 420.517C51.5614 419.99 51.0591 419.56 50.6888 419.24L50.2321 418.84L50.0778 418.704L50.0191 418.65L49.9834 418.62C49.9781 418.614 49.9731 418.61 66.6668 400L49.9834 418.62C39.7054 409.4 38.8374 393.584 48.0571 383.307C57.2584 373.05 73.0251 372.18 83.3044 381.34M83.2988 514.67C73.0194 505.507 57.2584 506.384 48.0571 516.64L83.2988 514.67ZM83.2988 514.67L83.4204 514.774C83.5674 514.904 83.8408 515.137 84.2408 515.47C85.0411 516.14 86.3474 517.204 88.1598 518.604C91.7848 521.407 97.4298 525.544 105.093 530.514C120.422 540.454 143.806 553.714 175.246 566.29L268.861 603.737C336.357 630.734 364.653 641.667 400 641.667C435.347 641.667 463.643 630.734 531.14 603.737L624.753 566.29C656.193 553.714 679.58 540.454 694.907 530.514C702.57 525.544 708.217 521.407 711.84 518.604C713.653 517.204 714.96 516.14 715.76 515.47C716.16 515.137 716.433 514.904 716.58 514.774L716.65 514.717C716.667 514.7 716.687 514.684 716.703 514.667C726.983 505.507 742.743 506.384 751.943 516.64C761.163 526.917 760.307 542.724 750.027 551.944L733.887 533.95C750.027 551.944 750.033 551.937 750.027 551.944L749.98 551.984L749.923 552.037L749.767 552.174L749.31 552.574C748.94 552.894 748.44 553.324 747.803 553.85C746.537 554.91 744.74 556.37 742.413 558.167C737.763 561.76 730.997 566.7 722.113 572.464C704.343 583.987 678.08 598.814 643.323 612.714L549.707 650.16C548.413 650.68 547.127 651.194 545.853 651.704C483.293 676.734 445.973 691.667 400 691.667C354.027 691.667 316.707 676.734 254.148 651.704C252.873 651.194 251.588 650.68 250.292 650.16L156.676 612.714C121.92 598.814 95.6571 583.987 77.8874 572.464C69.0018 566.7 62.2351 561.76 57.5858 558.167C55.2608 556.37 53.4641 554.91 52.1958 553.85C51.5614 553.324 51.0591 552.894 50.6888 552.574L50.2321 552.174L50.0778 552.037L50.0191 551.984L49.9834 551.954C49.9781 551.947 49.9731 551.944 66.6668 533.334L49.9834 551.954C39.7054 542.734 38.8374 526.917 48.0571 516.64" fill="#6A6A70"/>
</svg>
