<svg width="704" height="692" viewBox="0 0 704 692" fill="none" xmlns="http://www.w3.org/2000/svg">
<g clip-path="url(#clip0_26_287)">
<path d="M391.64 292C392.556 291.153 393.405 290.237 394.18 289.26C419.29 252.62 453.63 229.15 497.04 220.62C538.94 212.39 580.04 216.69 618.69 235.92C648.85 250.92 670.43 274.54 684.42 305.2C694.128 326.626 699.868 349.635 701.36 373.11C702.36 387.54 703.19 402.02 703.21 416.48C703.377 505.473 703.407 594.473 703.3 683.48C703.3 691.25 703.3 691.25 695.3 691.25H566.81C560.03 691.25 560.01 691.25 560.01 684.25C560.01 605.417 560.01 526.59 560.01 447.77C560.01 429.99 557.87 412.54 552.11 395.69C542.42 367.34 523.45 349.83 493.04 346.06C470.23 343.23 448.52 346.2 428.8 358.8C411.48 369.86 401.71 386.39 395.89 405.55C391.55 419.84 390.25 434.55 390.26 449.46C390.32 527.613 390.32 605.77 390.26 683.93C390.26 691.29 390.26 691.29 382.87 691.29H258.87C252.24 691.29 252.23 691.29 252.23 684.67V239.18C252.23 232.61 252.23 232.57 258.95 232.55C270.57 232.55 282.19 232.65 293.81 232.5C300.81 232.41 307.81 231.7 314.75 231.64C329.37 231.5 343.99 231.56 358.61 231.64C368.07 231.64 377.53 231.86 386.99 231.86C390.76 231.86 390.22 234.47 390.23 236.72C390.23 253.22 390.23 269.717 390.23 286.21V291.6L391.64 292Z" fill="#4B3BA2"/>
<path d="M157.38 461.69V684.18C157.38 691.28 157.38 691.29 150.21 691.29H21.7202C14.2102 691.29 14.2002 691.29 14.2002 684.04V239.53C14.2002 232.75 14.2002 232.63 21.0802 232.53C31.5402 232.43 41.9902 232.58 52.4502 232.47C57.4502 232.42 62.4502 231.83 67.3902 231.8C74.3902 231.75 81.3902 232.13 88.3902 232.1C96.0302 232.1 103.66 231.64 111.3 231.59C124.42 231.5 137.55 231.59 150.67 231.59C157.19 231.59 157.42 231.69 157.42 238.2C157.4 312.693 157.387 387.19 157.38 461.69Z" fill="#4B3BA2"/>
<path d="M84.4602 168.3C39.2702 169.3 -0.089846 131 0.000154042 84.4902C0.090154 38.3202 38.1202 -0.0898422 84.1502 0.000157841C131.63 0.0901578 170.15 36.2502 170.09 84.6802C170.102 95.8348 167.88 106.879 163.555 117.161C159.23 127.443 152.891 136.756 144.91 144.549C136.93 152.342 127.469 158.459 117.087 162.538C106.705 166.617 95.6114 168.576 84.4602 168.3Z" fill="#4B3BA2"/>
</g>
<defs>
<clipPath id="clip0_26_287">
<rect width="703.32" height="691.29" fill="white"/>
</clipPath>
</defs>
</svg>
