<svg width="800" height="800" viewBox="0 0 800 800" fill="none" xmlns="http://www.w3.org/2000/svg">
<path d="M518.54 484.923L503.357 500.907C503.357 500.907 467.27 538.9 368.77 435.197C270.271 331.495 306.357 293.502 306.357 293.502L315.917 283.437C339.47 258.641 341.69 218.832 321.141 189.77L279.109 130.32C253.676 94.35 204.532 89.5983 175.382 120.288L123.062 175.371C108.608 190.589 98.9216 210.315 100.096 232.198C103.101 288.182 127.024 408.633 260.512 549.173C402.07 698.207 534.893 704.13 589.21 698.77C606.39 697.073 621.33 687.81 633.37 675.133L680.723 625.28C712.687 591.63 703.673 533.94 662.777 510.4L599.093 473.743C572.24 458.287 539.527 462.827 518.54 484.923Z" fill="#6A6A70"/>
<path d="M441.983 62.6614C444.19 49.0317 457.073 39.7861 470.703 41.9924C471.547 42.1541 474.263 42.6614 475.683 42.9781C478.53 43.6117 482.497 44.5867 487.443 46.0277C497.337 48.9091 511.157 53.6561 527.743 61.2604C560.953 76.4857 605.147 103.119 651.007 148.979C696.867 194.839 723.5 239.033 738.723 272.242C746.33 288.829 751.077 302.649 753.957 312.542C755.397 317.489 756.373 321.457 757.007 324.301C757.323 325.723 757.557 326.865 757.717 327.709L757.91 328.749C760.113 342.377 750.953 355.797 737.323 358.004C723.733 360.204 710.93 351 708.67 337.437C708.6 337.07 708.407 336.094 708.203 335.17C707.79 333.324 707.08 330.396 705.953 326.524C703.697 318.78 699.78 307.269 693.273 293.08C680.28 264.736 656.913 225.597 615.65 184.334C574.39 143.072 535.25 119.706 506.907 106.712C492.717 100.206 481.207 96.2887 473.46 94.0327C469.59 92.9051 464.723 91.7881 462.877 91.3771C449.31 89.1161 439.783 76.2521 441.983 62.6614Z" fill="#6A6A70"/>
<path fill-rule="evenodd" clip-rule="evenodd" d="M449.524 177.644C453.317 164.368 467.154 156.68 480.43 160.473L473.564 184.511C480.43 160.473 480.43 160.473 480.43 160.473L480.48 160.487L480.53 160.502L480.64 160.534L480.9 160.612L481.56 160.817C482.06 160.978 482.69 161.187 483.437 161.453C484.934 161.984 486.914 162.739 489.34 163.779C494.197 165.861 500.83 169.075 508.984 173.898C525.297 183.554 547.57 199.594 573.737 225.759C599.903 251.925 615.94 274.198 625.597 290.513C630.42 298.664 633.634 305.299 635.717 310.155C636.757 312.582 637.514 314.561 638.044 316.058C638.31 316.806 638.517 317.434 638.68 317.936L638.884 318.596L638.96 318.854L638.994 318.965L639.007 319.017C639.007 319.017 639.023 319.065 614.983 325.933L639.024 319.065C642.817 332.341 635.127 346.177 621.854 349.97C608.69 353.73 594.974 346.207 591.044 333.138L590.92 332.778C590.744 332.277 590.377 331.292 589.76 329.852C588.527 326.973 586.29 322.266 582.57 315.979C575.137 303.421 561.714 284.446 538.38 261.115C515.05 237.783 496.074 224.36 483.517 216.927C477.23 213.207 472.524 210.97 469.644 209.737C468.204 209.12 467.217 208.751 466.717 208.574L466.357 208.451C453.29 204.522 445.764 190.807 449.524 177.644Z" fill="#6A6A70"/>
</svg>
