<svg width="20" height="20" viewBox="0 0 20 20" fill="none" xmlns="http://www.w3.org/2000/svg">
<path d="M12.7617 0C15.2953 0 16.5627 0.000100076 17.5303 0.493164C18.3812 0.926843 19.0732 1.61876 19.5068 2.46973C19.9999 3.43743 20 4.70473 20 7.23828V12.7617C20 15.2953 19.9999 16.5627 19.5068 17.5303C19.0732 18.3812 18.3812 19.0732 17.5303 19.5068C16.5627 19.9999 15.2953 20 12.7617 20H7.23828C4.70473 20 3.43743 19.9999 2.46973 19.5068C1.61876 19.0732 0.926843 18.3812 0.493164 17.5303C0.000100076 16.5627 0 15.2953 0 12.7617V7.23828C0 4.70473 0.000100076 3.43743 0.493164 2.46973C0.926839 1.61876 1.61876 0.926839 2.46973 0.493164C3.43743 0.000100076 4.70473 0 7.23828 0H12.7617ZM14.0928 7.79297C12.8453 7.79326 11.46 8.44977 11.4629 9.91211C11.4542 10.5568 11.7756 11.1433 12.2881 11.5088C12.6547 11.7693 13.0543 11.9776 13.4756 12.1279C13.7663 12.2381 14.4951 12.4375 14.4951 12.8711C14.4994 13.3226 13.8904 13.3525 13.583 13.3525C12.8863 13.343 12.1724 13.166 11.5703 12.8018C11.5203 12.7592 11.4563 12.8116 11.4629 12.8711V14.3564C11.4604 14.4241 11.4979 14.4913 11.5566 14.5225C12.1711 14.8108 12.8715 14.9141 13.543 14.9072C14.8327 14.9069 16.3373 14.2863 16.3066 12.7334C16.3291 11.4858 15.1842 10.8649 14.1729 10.5176C13.8845 10.4003 13.2332 10.1986 13.2207 9.78809C13.2216 9.05272 14.6287 9.34674 14.9854 9.43066C15.2628 9.48952 15.5312 9.58686 15.7832 9.71973C15.8481 9.7528 15.9444 9.72301 15.9395 9.63672V8.24707C15.9396 8.17344 15.9228 8.09128 15.8447 8.06836C15.302 7.83162 14.6759 7.78811 14.0928 7.79297ZM6.95215 5.71484C6.09089 5.71485 5.2302 5.76562 4.36914 5.76562C4.31089 5.76562 4.28621 5.79976 4.28613 5.85938V14.6543C4.28613 14.7312 4.31908 14.7656 4.38574 14.7656H5.96875C6.03582 14.7656 6.10504 14.7267 6.09375 14.6455V11.9023C7.54039 11.9023 9.15484 11.9229 10.0859 10.5859C10.4192 10.1074 10.5859 9.50056 10.5859 8.76562C10.5859 8.38099 10.5186 8.01329 10.3936 7.6543C9.86295 6.19233 8.34983 5.71484 6.95215 5.71484ZM6.10254 7.41504C6.69028 7.32894 7.44972 7.34294 7.99414 7.56934C8.49287 7.76347 8.78541 8.27967 8.76855 8.81738C8.76839 9.44832 8.4355 9.97484 7.82715 10.1504C7.27612 10.3336 6.67605 10.3291 6.10254 10.2871V7.41504Z" fill="#4B3BA2"/>
</svg>
