<svg width="20" height="20" viewBox="0 0 20 20" fill="none" xmlns="http://www.w3.org/2000/svg">
<path d="M12.7617 0C15.2953 0 16.5627 0.000100076 17.5303 0.493164C18.3812 0.926843 19.0732 1.61876 19.5068 2.46973C19.9999 3.43743 20 4.70473 20 7.23828V12.7617C20 15.2953 19.9999 16.5627 19.5068 17.5303C19.0732 18.3812 18.3812 19.0732 17.5303 19.5068C16.5627 19.9999 15.2953 20 12.7617 20H7.23828C4.70473 20 3.43743 19.9999 2.46973 19.5068C1.61876 19.0732 0.926843 18.3812 0.493164 17.5303C0.000100076 16.5627 0 15.2953 0 12.7617V7.23828C0 4.70473 0.000100076 3.43743 0.493164 2.46973C0.926839 1.61876 1.61876 0.926839 2.46973 0.493164C3.43743 0.000100076 4.70473 0 7.23828 0H12.7617ZM15.2109 5.00098C15.1575 5.00105 15.131 5.03291 15.1309 5.09668V7.80762C13.6305 7.66976 12.0506 8.19516 11.2666 9.59668C10.9627 10.146 10.8055 10.7679 10.8105 11.3994C10.8105 12.1794 10.9624 12.8285 11.2666 13.3467C11.8896 14.4259 13.1293 14.913 14.3125 14.8945C15.2164 14.8904 16.1201 14.7156 16.9551 14.3584C17.0058 14.3345 17.0393 14.2777 17.0361 14.2207C17.0156 13.886 16.9824 13.5513 16.9824 13.2158V5.08301C16.9887 5.03574 16.9475 4.99422 16.9014 5.00098H15.2109ZM3.01562 5.74414C2.94229 5.73908 2.90285 5.80486 2.94824 5.86719L5.4707 10.2432L2.88184 14.6055C2.84114 14.6698 2.84966 14.7246 2.92188 14.7246H4.75977C4.84905 14.7246 4.91142 14.7154 4.94727 14.6328C5.14402 14.2752 5.33661 13.9152 5.52441 13.5527C5.71211 13.1905 5.90232 12.8259 6.09473 12.459C6.28683 12.0922 6.48607 11.7253 6.66504 11.3584C6.86175 11.7345 7.06051 12.106 7.26172 12.4727C7.46276 12.8397 7.65306 13.1998 7.83203 13.5527C8.0108 13.9059 8.19008 14.2614 8.36914 14.6191C8.42275 14.7109 8.51629 14.7158 8.65039 14.7158H10.5557C10.6361 14.7158 10.6912 14.6935 10.6357 14.5918L7.9668 10.1055L10.4619 5.88184C10.4896 5.83584 10.4616 5.74414 10.3945 5.74414H8.63672C8.55669 5.73617 8.50039 5.77542 8.47656 5.85352C8.29767 6.2113 8.11119 6.57138 7.91895 6.93359C7.72652 7.29594 7.53876 7.65687 7.35547 8.01465C7.17211 8.37237 6.99121 8.73931 6.8125 9.11523C6.6426 8.74831 6.44344 8.38603 6.24219 8.02832C6.04092 7.67083 5.84204 7.30824 5.64551 6.94141C5.44875 6.57456 5.26941 6.20684 5.1084 5.83984C5.06144 5.76992 4.98905 5.73958 4.90723 5.74414H3.01562ZM12.7158 11.3174C12.7156 10.0251 13.9054 9.09121 15.1309 9.43164V13.1885C13.8386 13.5761 12.687 12.6531 12.7158 11.3174Z" fill="#4B3BA2"/>
</svg>
